<?xml version="1.0" encoding="UTF-8"?><svg id="Layer_2" xmlns="http://www.w3.org/2000/svg" xmlns:xlink="http://www.w3.org/1999/xlink" viewBox="0 0 83.26 83.22"><defs><style>.cls-1{fill:url(#linear-gradient);}.cls-1,.cls-2,.cls-3,.cls-4{stroke-width:0px;}.cls-2{fill:url(#linear-gradient-2);}.cls-3{fill:url(#linear-gradient-3);}.cls-4{fill:url(#linear-gradient-4);}</style><linearGradient id="linear-gradient" x1="20.12" y1="40.43" x2="20.12" y2=".55" gradientUnits="userSpaceOnUse"><stop offset="0" stop-color="#999"/><stop offset="0" stop-color="#989798"/><stop offset=".03" stop-color="#787780"/><stop offset=".06" stop-color="#5d5b6c"/><stop offset=".1" stop-color="#47445b"/><stop offset=".14" stop-color="#36334e"/><stop offset=".19" stop-color="#2a2745"/><stop offset=".25" stop-color="#232040"/><stop offset=".42" stop-color="#221e3f"/></linearGradient><linearGradient id="linear-gradient-2" x1="43.02" y1="20.08" x2="83.26" y2="20.08" xlink:href="#linear-gradient"/><linearGradient id="linear-gradient-3" x1="63.14" y1="43.64" x2="63.14" y2="82.24" xlink:href="#linear-gradient"/><linearGradient id="linear-gradient-4" x1="39.49" y1="63.14" x2="1.75" y2="63.14" xlink:href="#linear-gradient"/></defs><g id="Layer_1-2"><path class="cls-1" d="M26.12,40.16H0l27.48-12.76L40.2,0l.03,26.03c.01,7.8-6.31,14.14-14.12,14.14Z"/><path class="cls-2" d="M57.14,40.16h26.12s-27.48-12.76-27.48-12.76L43.06,0l-.03,26.03c-.01,7.8,6.31,14.14,14.12,14.14Z"/><path class="cls-3" d="M57.14,43.06h26.12l-27.48,12.76-12.72,27.4-.03-26.03c-.01-7.8,6.31-14.14,14.12-14.14Z"/><path class="cls-4" d="M26.12,43.06H0s27.48,12.76,27.48,12.76l12.72,27.4.03-26.03c.01-7.8-6.31-14.14-14.12-14.14Z"/></g></svg>